<?xml version="1.0" encoding="utf-8"?>
<!-- Generator: Adobe Illustrator 16.0.3, SVG Export Plug-In . SVG Version: 6.00 Build 0)  -->
<!DOCTYPE svg PUBLIC "-//W3C//DTD SVG 1.1//EN" "http://www.w3.org/Graphics/SVG/1.1/DTD/svg11.dtd">
<svg version="1.1" id="Calque_1" xmlns="http://www.w3.org/2000/svg" xmlns:xlink="http://www.w3.org/1999/xlink" x="0px" y="0px"
	 width="376.481px" height="277.486px" viewBox="0 0 376.481 277.486" enable-background="new 0 0 376.481 277.486"
	 xml:space="preserve">
<g>
	<polygon fill="#146F88" points="327.643,164.671 351.643,141.759 351.643,45.489 327.643,22.42 	"/>
</g>
<g>
	<g>
		<polygon fill="#146F88" points="176.062,164.671 200.063,141.759 200.063,113.252 176.062,89.252 		"/>
	</g>
	<g>
		<polygon fill="#146F88" points="239.852,85.278 176.062,22.42 176.062,55.311 239.912,119.161 279.643,79.428 279.643,141.759 
			303.643,164.671 303.643,22.42 		"/>
	</g>
</g>
<g>
	<g>
		<polygon fill="#146F88" points="88.272,85.278 72.507,69.743 72.507,103.454 88.272,119.219 128.062,79.428 128.062,141.759 
			152.062,164.671 152.062,22.42 		"/>
	</g>
	<g>
		<polygon fill="#146F88" points="48.507,46.093 36.494,34.256 24.482,22.42 24.482,46.093 24.482,46.094 24.482,79.454 
			24.482,79.454 24.507,79.428 24.507,141.759 36.494,153.202 48.507,164.671 48.507,79.454 48.507,79.454 48.507,46.094 		"/>
	</g>
</g>
<g>
	<path fill="#146F88" d="M96.334,217.021v9.404H84.732v37.822h-9.521v-37.822H63.58v-9.404H96.334z"/>
	<path fill="#146F88" d="M106.436,217.021h15.41c5.258,0,9.51,1.985,12.363,4.805c2.875,2.875,4.57,5.498,4.57,10.723v1.23
		c0,3.184-0.996,6.182-2.988,8.994c-1.659,2.322-2.973,3.311-5.654,4.365l10.986,17.109h-11.602l-13.564-20.889v20.889h-9.492
		L106.436,217.021z M128.994,232.842c0-1.719-0.625-3.232-1.875-4.541c-1.231-1.197-3.57-1.875-5.859-1.875h-5.332v13.037h3.662
		v0.029h3.164C126.213,239.492,128.994,236.442,128.994,232.842z"/>
	<path fill="#146F88" d="M190.336,223.701c4.707,4.707,7.061,10.361,7.061,16.963c0,6.621-2.354,12.266-7.061,16.934
		c-4.688,4.648-10.332,6.973-16.934,6.973c-6.621-0.02-12.266-2.344-16.934-6.973c-4.688-4.688-7.031-10.332-7.031-16.934
		c0-6.582,2.344-12.236,7.031-16.963c4.707-4.707,10.352-7.061,16.934-7.061S185.629,218.994,190.336,223.701z M163.236,230.439
		c-2.813,2.852-4.219,6.24-4.219,10.166c0,3.965,1.406,7.354,4.219,10.166c2.793,2.793,6.182,4.189,10.166,4.189
		c3.926,0,7.305-1.396,10.137-4.189s4.248-6.182,4.248-10.166c0-3.945-1.416-7.334-4.248-10.166
		c-2.813-2.813-6.191-4.219-10.137-4.219C169.398,226.221,166.01,227.627,163.236,230.439z"/>
	<path fill="#146F88" d="M210.574,217.021l8.613,16.377l8.613-16.377h10.752l-14.648,26.982v20.244h-9.434v-20.244l-14.619-26.982
		H210.574z"/>
	<path fill="#146F88" d="M277.131,216.904v9.463h-18.984v9.521h14.238v9.463h-14.238v9.521h18.984v9.434h-28.477v-47.402H277.131z"
		/>
	<path fill="#146F88" d="M300.393,254.951c2.622,0,5.516-2.177,5.516-4.799c0-4.312-5.787-4.913-9.053-6.044
		c-5.758-1.963-10.844-6.689-10.844-13.121c0-7.965,6.461-14.382,14.425-14.382c7.263,0,13.278,5.386,14.253,12.391l-9.426,1.991
		c0-2.593-2.178-4.771-4.77-4.771c-2.637,0-4.813,2.178-4.813,4.799c0,4.254,5.386,5.386,8.666,6.36
		c5.959,1.719,11.216,6.26,11.216,12.834c0,7.964-7.147,14.396-15.098,14.396c-7.305,0-13.908-5.357-14.982-12.39l9.425-2.006
		c0,2.636,2.864,4.784,5.529,4.784L300.393,254.951z"/>
</g>
<g>
	<path fill="#146F88" d="M307.607,300.992"/>
</g>
</svg>
